<svg width="72" height="72" viewBox="0 0 72 72" fill="none" xmlns="http://www.w3.org/2000/svg">
<path d="M58 60.2001C56.9 59.1001 55.9 58.1001 54.8 57.0001C54.5 56.7001 54.3 56.4001 54.1 56.0001C53.9 55.3001 54.2 54.6001 54.8 54.2001C55.4 53.8001 56.2 53.9001 56.8 54.4001C57.8 55.3001 58.7 56.3001 59.6 57.2001C59.8 57.4001 60 57.6001 60.2 57.9001C65.4 52.0001 68.2 45.3001 68.7 37.5001C67.4 37.5001 66.2 37.5001 65 37.5001C64.6 37.5001 64.2 37.5001 63.8 37.5001C62.8 37.4001 62.2 36.7001 62.2 35.8001C62.2 34.9001 62.8 34.3001 63.7 34.2001C64.7 34.1001 65.6 34.2001 66.6 34.2001C67.2 34.2001 67.9 34.2001 68.6 34.2001C68.1 26.4001 65.3 19.7001 60.2 13.9001C59.2 14.9001 58.2 15.9001 57.2 16.9001C56.2 17.9001 55.2 18.1001 54.5 17.3001C53.7 16.6001 53.9 15.6001 54.9 14.5001C55.9 13.5001 56.9 12.6001 57.9 11.5001C52.1 6.30009 45.4 3.50009 37.6 3.10009C37.6 4.70009 37.6 6.20009 37.6 7.80009C37.6 8.80009 37.1 9.50009 36.3 9.60009C35.2 9.80009 34.4 9.10009 34.3 7.90009C34.3 6.60009 34.3 5.30009 34.3 4.10009C34.3 3.80009 34.3 3.60009 34.3 3.20009C26.6 3.80009 19.9 6.60009 14 11.7001C15.1 12.8001 16.1 13.8001 17.2 14.9001C17.5 15.2001 17.7 15.5001 17.9 15.9001C18.1 16.6001 17.8 17.3001 17.2 17.7001C16.6 18.1001 15.8 18.0001 15.2 17.5001C14.2 16.6001 13.3 15.6001 12.4 14.7001C12.2 14.5001 12 14.3001 11.8 14.0001C11.3 14.5001 11 14.9001 10.6 15.4001C7.79999 18.9001 5.69999 22.8001 4.49999 27.1001C4.19999 28.3001 3.49999 28.9001 2.49999 28.7001C1.49999 28.5001 0.899995 27.6001 1.19999 26.5001C2.79999 20.6001 5.69999 15.5001 9.89999 11.1001C15.8 5.00009 22.9 1.30009 31.3 0.30009C41.8 -0.99991 51.1 1.70009 59.1 8.50009C66 14.2001 70.2 21.6001 71.5 30.4001C73.3 42.3001 69.9 52.7001 61.5 61.4001C57.1 66.0001 51.7 69.1001 45.5 70.8001C44.8 71.0001 44.2 70.9001 43.7 70.4001C43.2 69.9001 43.1 69.3001 43.4 68.7001C43.7 68.3001 44.2 67.8001 44.7 67.7001C49.4 66.3001 53.7 64.1001 57.4 60.8001C57.6 60.6001 57.7 60.4001 58 60.2001Z" fill="white"/>
<path d="M13.1 48.5001C14.6 52.1001 19.9 57.4001 23.5 58.9001C23.6 58.7001 23.8 58.4001 23.9 58.2001C24.5 57.0001 25 55.8001 25.6 54.7001C26 53.8001 26.8 53.4001 27.7 53.8001C30.1 54.8001 32.5 55.4001 35.1 55.7001C36.6 55.9001 37.8 57.2001 37.8 58.9001C37.8 62.7001 37.8 66.5001 37.8 70.2001C37.8 71.4001 37.1 72.0001 35.9 72.0001C29.1 71.9001 22.8 70.2001 17.1 66.5001C8.2 60.9001 2.69999 53.0001 0.699994 42.7001C0.299994 40.6001 0.199994 38.4001 -5.52274e-06 36.3001C-0.100006 35.0001 0.599995 34.3001 1.89999 34.3001C5.59999 34.3001 9.29999 34.3001 12.9 34.3001C14.8 34.3001 16.1 35.5001 16.3 37.3001C16.5 39.7001 17.1 41.9001 18.1 44.1001C18.6 45.1001 18.2 45.9001 17.2 46.4001C15.9 47.2001 14.5 47.8001 13.1 48.5001ZM3.29999 37.7001C4.19999 56.2001 20 68.5001 34.2 68.6001C34.2 65.4001 34.2 62.1001 34.2 59.0001C32 58.5001 29.9 58.0001 27.7 57.6001C27.1 58.9001 26.4 60.3001 25.8 61.7001C25.2 62.9001 24.4 63.2001 23.2 62.6001C17 59.6001 12.4 55.0001 9.39999 48.9001C8.79999 47.6001 8.99999 46.8001 10.4 46.2001C11.8 45.6001 13.1 44.9001 14.4 44.3001C13.9 42.1001 13.4 39.9001 12.9 37.7001C9.79999 37.7001 6.59999 37.7001 3.29999 37.7001Z" fill="white"/>
<path d="M27.9 42.6001C29.8 42.6001 31.6 42.6001 33.4 42.6001C33.7 42.6001 34.1 42.6001 34.4 42.6001C35.4 42.6001 36.1 43.3001 36.1 44.2001C36.1 45.1001 35.4 45.8001 34.4 45.8001C32.9 45.8001 31.4 45.8001 29.9 45.8001C28.7 45.8001 27.5 45.8001 26.4 45.8001C25.4 45.8001 24.7 45.2001 24.7 44.2001C24.7 42.4001 24.6 40.6001 24.7 38.8001C24.9 36.2001 26.9 34.4001 29.6 34.3001C30.1 34.3001 30.6 34.3001 31.1 34.3001C31.4 34.3001 31.7 34.2001 32 34.1001C32.9 33.7001 33.2 32.2001 32.8 30.7001C32.6 29.9001 32 29.4001 31 29.4001C29.5 29.4001 27.9 29.4001 26.4 29.4001C25.2 29.4001 24.4 28.3001 24.8 27.3001C25 26.6001 25.6 26.2001 26.3 26.2001C28.1 26.2001 29.8 26.1001 31.6 26.2001C33.9 26.3001 35.9 28.2001 36.1 30.6001C36.2 31.5001 36.2 32.5001 36.1 33.4001C35.8 35.9001 33.8 37.6001 31.2 37.6001C30.6 37.6001 30 37.6001 29.4 37.6001C28.6 37.7001 28 38.2001 28 39.0001C27.8 40.2001 27.9 41.3001 27.9 42.6001Z" fill="white"/>
<path d="M42.6 34.3001C44.3 34.3001 45.8 34.3001 47.5 34.3001C47.5 34.0001 47.5 33.7001 47.5 33.5001C47.5 31.7001 47.5 29.8001 47.5 28.0001C47.5 26.9001 48.2 26.2001 49.1 26.2001C50 26.2001 50.7 26.9001 50.7 28.0001C50.7 33.4001 50.7 38.7001 50.7 44.1001C50.7 45.1001 50 45.9001 49.1 45.9001C48.2 45.9001 47.5 45.2001 47.5 44.2001C47.5 42.4001 47.5 40.5001 47.5 38.7001C47.5 38.4001 47.5 38.2001 47.5 37.8001C46.7 37.8001 46 37.8001 45.4 37.8001C44 37.8001 42.6 37.8001 41.3 37.8001C40 37.8001 39.4 37.2001 39.4 35.9001C39.4 33.3001 39.4 30.7001 39.4 28.2001C39.4 27.1001 40.1 26.4001 41 26.4001C42 26.4001 42.6 27.1001 42.7 28.2001C42.7 30.0001 42.7 31.7001 42.7 33.5001C42.6 33.6001 42.6 33.9001 42.6 34.3001Z" fill="white"/>
</svg>
