<svg width="61" height="72" viewBox="0 0 61 72" fill="none" xmlns="http://www.w3.org/2000/svg">
<path d="M32.3 0C33.5 0.2 34.8 0.3 36 0.6C48.1 2.8 58 12.7 60.1 24.9C61.8 34.8 59.2 43.6 52.5 51.1C52.4 51.3 52.2 51.4 52.1 51.7C51.1 50.6 50.2 49.6 49.2 48.6C59.8 37.7 58.3 20.6 47.9 11.2C38 2.2 22.7 2.2 12.8 11.1C2.29999 20.6 0.799992 37.8 11.4 48.6C10.5 49.6 9.49999 50.6 8.59999 51.7C6.39999 49.5 4.59999 47 3.29999 44.3C-3.80001 29.8 0.899992 13 14.5 4.5C18.6 2 23 0.5 27.8 0.1C28 0.1 28.2 0 28.4 0C29.7 0 31 0 32.3 0Z" fill="white"/>
<path d="M38.7 72C37.4 71.5 35.9 71.3 34.7 70.6C30.4 68.2 28.5 63.1 30 58.5C31.5 53.9 36 51 40.8 51.4C42.5 51.6 44.1 52.1 45.5 53.1C44.7 54.3 44 55.4 43.2 56.5C42.9 56.4 42.7 56.3 42.5 56.2C40.2 55.1 37.4 55.5 35.6 57.2C33.7 59 33.2 61.7 34.2 64C35.2 66.3 37.6 67.8 40.2 67.7C42.4 67.6 44.2 65.9 44.4 63.7C42.7 63.7 41.1 63.7 39.4 63.7C39.4 62.3 39.4 60.9 39.4 59.5C42.6 59.5 45.7 59.5 48.9 59.5C49.1 63.1 48.8 66.4 46.2 69.2C44.9 70.6 43.3 71.4 41.4 71.7C41.2 71.7 41.1 71.8 40.9 71.8C40.2 72 39.4 72 38.7 72Z" fill="white"/>
<path d="M17.8 72C16.5 71.7 15.3 71.3 14.2 70.4C12.8 69.2 12 67.8 11.7 66C13.1 65.8 14.5 65.6 15.8 65.4C16.1 66.6 16.8 67.4 18 67.7C19.1 68 20.1 67.6 20.8 66.8C21.6 65.9 21.7 64.9 21.2 63.8C20.7 62.8 19.9 62.1 18.8 62.2C17.9 62.2 17 62.6 16.1 62.7C15.8 62.7 15.4 62.7 15.2 62.6C14.6 62.3 14 61.9 13.5 61.5C13.3 61.4 13.2 61.1 13.2 61C13.7 57.8 14.2 54.7 14.8 51.5C18.2 51.5 21.6 51.5 25 51.5C25 52.9 25 54.2 25 55.6C22.8 55.6 20.7 55.6 18.4 55.6C18.3 56.4 18.1 57.1 18 57.9C18.7 57.9 19.3 57.9 19.9 58C23.3 58.6 25.7 61.5 25.8 64.9C25.8 68.2 23.4 71.2 20 71.9C19.8 71.9 19.7 72 19.5 72C19 72 18.4 72 17.8 72Z" fill="white"/>
<path d="M44 43.7C43.1 42.7 42.1 41.7 41.2 40.6C44.4 37.1 45.8 32.9 45.1 28.1C44.5 24.3 42.7 21.2 39.7 18.8C33.7 13.9 25.1 14.5 19.7 20.1C14.4 25.5 13.9 34.6 19.6 40.7C18.7 41.7 17.7 42.7 16.8 43.7C10.9 38.2 8.59999 26.9 15.7 18.3C22.7 9.7 35.4 8.9 43.5 16.5C51.5 24.1 51.2 36.4 44 43.7Z" fill="white"/>
<path d="M32.5 48C31.2 48 30 48 28.8 48C28.6 48 28.5 48 28.3 48C28.3 45.3 28.3 42.6 28.3 39.8C25.3 39 23.1 37.3 21.7 34.6C20.7 32.6 20.5 30.4 21 28.2C22.1 23.7 26.2 20.6 30.8 20.8C35.4 21 39.2 24.5 39.9 29.1C40.5 33.6 37.9 38.3 32.5 39.8C32.5 42.5 32.5 45.2 32.5 48ZM30.4 35.7C33.4 35.7 35.7 33.3 35.7 30.3C35.7 27.3 33.3 24.9 30.3 24.9C27.3 24.9 25 27.3 25 30.3C25 33.4 27.4 35.7 30.4 35.7Z" fill="white"/>
</svg>
