<svg width="24" height="24" viewBox="0 0 24 24" fill="none" xmlns="http://www.w3.org/2000/svg">
<g clip-path="url(#clip0_73_6885)">
<path d="M21.8908 2.85938H2.10953C1.78483 2.85938 1.48084 2.9392 1.20583 3.07078L11.9533 13.8182L14.3621 11.5032L22.7948 3.07097C22.5198 2.9393 22.2156 2.85938 21.8908 2.85938Z" fill="white"/>
<path d="M23.789 4.06535L15.8538 12.0001L23.7887 19.9349C23.9202 19.6599 24.0001 19.3559 24.0001 19.0312V4.96872C24.0001 4.64421 23.9204 4.34027 23.789 4.06535Z" fill="white"/>
<path d="M0.211406 4.0652C0.0798281 4.34022 0 4.6442 0 4.96891V19.0314C0 19.3559 0.0797344 19.66 0.211219 19.9349L8.14636 12.0002L0.211406 4.0652Z" fill="white"/>
<path d="M14.8596 12.9944L12.4504 15.3097C12.3131 15.4471 12.1332 15.5157 11.9533 15.5157C11.7735 15.5157 11.5935 15.4471 11.4562 15.3097L9.14078 12.9943L1.20549 20.9291C1.48056 21.0608 1.78473 21.1407 2.10953 21.1407H21.8908C22.2155 21.1407 22.5195 21.0609 22.7945 20.9293L14.8596 12.9944Z" fill="white"/>
</g>
<defs>
<clipPath id="clip0_73_6885">
<rect width="24" height="24" fill="white"/>
</clipPath>
</defs>
</svg>
