<svg width="72" height="72" viewBox="0 0 72 72" fill="none" xmlns="http://www.w3.org/2000/svg">
<rect width="72" height="72" rx="18" fill="url(#paint0_linear_73_13420)"/>
<path d="M22 36C22 36.497 22.403 36.9 22.9 36.9H38.7275L33.9637 41.6637C33.7949 41.8324 33.7001 42.0613 33.7001 42.2999C33.7 42.7969 34.103 43.1999 34.6 43.2C34.8387 43.2002 35.0677 43.1054 35.2362 42.9363L41.5362 36.6363C41.5363 36.6362 41.5364 36.6362 41.5366 36.6361C41.8878 36.2847 41.8877 35.715 41.5362 35.3638L35.2362 29.0638C34.8875 28.7269 34.3346 28.7269 33.9858 29.0638C33.6283 29.4091 33.6184 29.9788 33.9637 30.3363L38.7275 35.1H22.9C22.403 35.1 22 35.503 22 36ZM46.3 18H26.5C24.0157 18.0023 22.0023 20.0157 22 22.5V29.7C22 30.197 22.403 30.6 22.9 30.6C23.397 30.6 23.8 30.197 23.8 29.7V22.5C23.8016 21.0095 25.0095 19.8016 26.5 19.8H46.3C47.7905 19.8016 48.9984 21.0095 49 22.5V49.5C48.9984 50.9905 47.7905 52.1984 46.3 52.2H26.5C25.0095 52.1984 23.8016 50.9905 23.8 49.5V42.3C23.8 41.803 23.397 41.4 22.9 41.4C22.403 41.4 22 41.803 22 42.3V49.5C22.0023 51.9843 24.0157 53.9977 26.5 54H46.3C48.7843 53.9977 50.7977 51.9843 50.8 49.5V22.5C50.7977 20.0157 48.7843 18.0023 46.3 18Z" fill="white"/>
<defs>
<linearGradient id="paint0_linear_73_13420" x1="0" y1="36" x2="72" y2="36" gradientUnits="userSpaceOnUse">
<stop stop-color="#AAEA03"/>
<stop offset="0.5" stop-color="#21B5C0"/>
<stop offset="0.971" stop-color="#007EBE"/>
<stop offset="1" stop-color="#007EBE"/>
</linearGradient>
</defs>
</svg>
