<svg width="140" height="62" viewBox="0 0 140 62" fill="none" xmlns="http://www.w3.org/2000/svg">
<path d="M49.607 2.98566C45.7723 4.27471 40.3718 7.73254 39.442 11.9699C39.2019 13.2562 39.3095 14.5834 39.7536 15.8139C40.1977 17.0445 40.9621 18.1337 41.9676 18.9685C46.7541 23.07 55.7473 22.0129 57.0206 21.8404C60.3567 21.5206 63.7781 21.0038 67.085 20.5058C76.3169 19.1142 85.8647 17.6738 94.4015 20.387C95.3695 20.6938 96.4951 21.2431 96.3562 22.1171C96.072 23.9074 92.7018 26.5115 88.0679 26.5115V31.1974C94.6459 30.8434 100.312 27.449 101.043 22.8405C101.428 20.4163 100.266 17.3255 95.8535 15.9233C86.2545 12.8765 76.1439 14.3991 66.3703 15.8721C63.1081 16.3603 59.6299 16.8852 56.4051 17.1912C53.0308 17.6681 48.8485 17.6396 45.7909 15.9437C43.6503 14.7572 43.6795 12.4289 45.4556 10.8616C47.122 9.36351 49.0545 8.1925 51.1524 7.40946C60.507 4.26741 72.4594 5.54749 86.7605 11.0487C87.3558 11.2645 88.012 11.2365 88.5868 10.9706C89.1616 10.7048 89.6087 10.2226 89.831 9.62866C90.2817 8.39983 89.3121 6.95942 88.0679 6.51346C78.4771 2.82292 69.9517 0.993502 62.3561 0.993502C58.0266 0.955905 53.7201 1.62661 49.6062 2.97915" fill="white"/>
<path d="M71.0586 11.1464C69.6593 14.0402 63.1203 27.7477 61.3175 31.4846C61.0677 31.3169 60.8705 31.0815 60.749 30.8059C58.7139 27.6566 56.6885 24.4982 54.6485 21.3521C53.4166 19.4552 51.3189 19.5056 50.1365 21.4449C49.2927 22.8284 48.4189 24.1923 47.6328 25.605C47.5001 25.8905 47.281 26.1268 47.0067 26.2805C46.7323 26.4342 46.4166 26.4974 46.1044 26.4611C44.9147 26.4562 44.2788 26.4709 43.608 26.4855C43.0168 26.4969 42.398 26.5091 41.3512 26.5091C40.7074 26.5091 40.09 26.7654 39.6348 27.2216C39.1796 27.6777 38.9239 28.2964 38.9239 28.9415C38.9239 29.5867 39.1796 30.2053 39.6348 30.6615C40.09 31.1177 40.7074 31.374 41.3512 31.374C44.2252 31.3626 44.8254 31.2788 47.6986 31.3146C48.3725 31.3953 49.0546 31.2604 49.6474 30.9292C50.2401 30.598 50.7132 30.0874 50.9989 29.4705C51.4115 28.647 51.9605 27.8877 52.4875 27.0357C54.7898 30.6025 57.0353 34.0619 59.2539 37.5417C59.4777 38.0091 59.834 38.4001 60.2783 38.6657C60.7226 38.9313 61.2352 39.0598 61.7519 39.035C62.2659 38.9851 62.7543 38.7867 63.158 38.464C63.5616 38.1413 63.8631 37.7081 64.0258 37.217C64.9191 35.3209 71.0699 22.5557 73.0401 18.4656C73.1684 18.1962 73.2163 17.8561 73.5688 17.6518C73.7426 17.9578 73.9017 18.2312 74.056 18.5104C76.0919 22.2408 78.1417 25.9663 80.1557 29.7089C80.3708 30.2365 80.7423 30.6852 81.2199 30.9946C81.6975 31.304 82.2583 31.4591 82.8267 31.439L88.0615 31.2006V26.5148H84.8553C84.6096 26.4719 84.377 26.3729 84.1756 26.2254C83.9742 26.078 83.8094 25.886 83.694 25.6644C83.3692 25.1371 78.0158 15.422 75.7078 11.17C75.5277 10.7451 75.235 10.3778 74.8613 10.1078C74.4877 9.83783 74.0474 9.67551 73.5882 9.63843C73.507 9.63274 73.4315 9.63029 73.3552 9.63029C72.8635 9.61689 72.3796 9.75511 71.9688 10.0263C71.5581 10.2974 71.2404 10.6884 71.0586 11.1464Z" fill="white"/>
<path d="M58.5758 60.8275H60.0814V50.8333H58.5758V60.8275ZM100.729 58.9444C100.113 58.4561 99.8044 57.4182 99.8044 55.8308C99.8044 54.1712 100.102 53.1217 100.698 52.6823C101.293 52.2428 102.423 52.0228 104.088 52.0223H104.54C105.159 52.0223 105.691 52.0304 106.145 52.0434C106.599 52.0564 107.201 52.115 107.953 52.2151C108.296 52.2438 108.623 52.372 108.895 52.584C109.166 52.796 109.37 53.0827 109.481 53.4089C109.783 54.3452 109.918 55.3271 109.88 56.3101C109.88 57.9013 109.496 58.8608 108.729 59.1885C107.437 59.5886 106.084 59.7539 104.735 59.6768H104.154C102.488 59.6768 101.347 59.4326 100.731 58.9444H100.729ZM103.167 50.7251C102.723 50.7386 102.012 50.8062 101.036 50.9277C100.586 50.9661 100.154 51.1166 99.778 51.3655C99.4019 51.6144 99.0941 51.9538 98.8827 52.3527C98.3629 53.4714 98.1264 54.7012 98.194 55.9334C98.194 58.1322 98.6891 59.5216 99.6793 60.1016C100.67 60.6815 102.348 60.9721 104.714 60.9732C107.383 60.9732 109.178 60.6747 110.097 60.078C111.016 59.4812 111.476 58.0001 111.477 55.6347C111.574 54.4531 111.299 53.2709 110.692 52.2534C110.189 51.5722 109.446 51.1084 108.614 50.9562C107.333 50.7552 106.036 50.6697 104.74 50.7007C104.137 50.7007 103.613 50.7077 103.168 50.7218L103.167 50.7251ZM116.881 58.9411C116.265 58.4529 115.956 57.415 115.956 55.8276C115.956 54.168 116.254 53.1184 116.85 52.679C117.445 52.2396 118.575 52.0196 120.239 52.019H120.692C121.31 52.019 121.844 52.0272 122.297 52.0402C122.75 52.0532 123.353 52.1118 124.105 52.2119C124.448 52.2406 124.775 52.3687 125.046 52.5807C125.318 52.7928 125.522 53.0794 125.633 53.4057C125.934 54.3419 126.069 55.3239 126.032 56.3069C126.032 57.8981 125.648 58.8576 124.88 59.1853C123.589 59.5854 122.236 59.7507 120.886 59.6735H120.305C118.641 59.6735 117.5 59.4294 116.883 58.9411H116.881ZM119.319 50.7218C118.875 50.7354 118.164 50.8029 117.188 50.9245C116.739 50.9628 116.307 51.1133 115.931 51.3622C115.555 51.6111 115.247 51.9505 115.035 52.3494C114.516 53.4681 114.279 54.6979 114.347 55.9301C114.347 58.129 114.842 59.5184 115.832 60.0983C116.822 60.6783 118.501 60.9688 120.867 60.9699C123.536 60.9699 125.33 60.6715 126.25 60.0747C127.169 59.478 127.629 57.9968 127.63 55.6314C127.727 54.4498 127.452 53.2676 126.845 52.2501C126.342 51.569 125.599 51.1052 124.767 50.953C123.485 50.752 122.189 50.6664 120.892 50.6974C120.29 50.6974 119.765 50.7056 119.321 50.7186L119.319 50.7218ZM27.911 53.5912C28.0227 53.2234 28.244 52.8985 28.5452 52.6603C28.9689 52.3521 29.4684 52.1653 29.99 52.1199C30.7251 52.0221 31.4662 51.9759 32.2078 51.9816H33.3927C34.1627 51.9601 34.9324 52.0319 35.6852 52.1956C36.1306 52.2861 36.5481 52.4814 36.9034 52.7653C37.1577 52.9962 37.3373 53.298 37.419 53.632C37.5101 54.0182 37.5532 54.4143 37.5473 54.8111H27.7502C27.7435 54.4024 27.7944 53.9948 27.9012 53.6002L27.911 53.5912ZM31.7668 50.664C29.6732 50.664 28.2296 51.0148 27.4359 51.7163C26.6422 52.4178 26.2446 53.7963 26.2429 55.852C26.1343 57.1003 26.4323 58.3504 27.0924 59.4147C27.6308 60.1129 28.4109 60.5833 29.2786 60.7331C30.6401 60.9272 32.0153 61.0089 33.3902 60.9772C34.794 61.0208 36.1949 60.8229 37.5319 60.3921C38.0485 60.2091 38.4882 59.8564 38.7796 59.3913C39.0709 58.9262 39.1967 58.3761 39.1366 57.8303H37.5425C37.5269 58.1476 37.4311 58.4556 37.2639 58.7255C37.0755 58.9904 36.8134 59.1939 36.5103 59.3106C36.1396 59.4654 35.7474 59.5623 35.3474 59.5979C34.918 59.6396 34.3295 59.6608 33.5819 59.6613H32.7657C32.0776 59.6613 31.4821 59.6402 30.9791 59.5979C30.4764 59.5539 30.1093 59.5116 29.8811 59.4701C29.5293 59.4327 29.1908 59.3144 28.892 59.1244C28.5932 58.9344 28.3423 58.6779 28.1587 58.3747C27.8528 57.653 27.714 56.8712 27.7526 56.088H39.1391V55.5761C39.2261 54.4192 38.9756 53.2619 38.4179 52.2452C37.9643 51.5656 37.2607 51.0937 36.4608 50.9326C35.2516 50.7236 34.0248 50.6344 32.7982 50.6665L31.7668 50.664ZM85.2751 51.0465C84.5456 51.2298 83.9069 51.6714 83.4772 52.29C83.1433 52.7778 82.9214 53.3336 82.8275 53.9176C82.7557 54.5813 82.7237 55.2487 82.7317 55.9163C82.7317 57.9996 83.2303 59.3605 84.2275 59.999C85.2248 60.6376 86.8357 60.9566 89.0603 60.9561L90.7398 60.9349C91.9625 61.0094 93.1816 60.7405 94.2602 60.1585C95.0723 59.6399 95.4783 58.6723 95.4783 57.2558H93.9061C93.9061 58.4325 93.4827 59.1199 92.636 59.3179C92.0053 59.4839 91.3598 59.5872 90.7089 59.6263C90.2712 59.6345 89.8968 59.6369 89.5777 59.6369C89.0038 59.6369 88.4661 59.6231 87.9648 59.5954C87.4597 59.5669 86.9091 59.5067 86.3057 59.4147C86.0239 59.3785 85.7522 59.2863 85.5064 59.1437C85.2606 59.001 85.0456 58.8107 84.874 58.5839C84.4411 57.7733 84.258 56.8523 84.3477 55.9374V55.6396C84.3477 55.2571 84.3607 54.8933 84.39 54.545C84.4292 54.1507 84.5126 53.7619 84.6385 53.3862C84.7113 53.1697 84.8326 52.9727 84.993 52.8103C85.1535 52.648 85.3489 52.5246 85.5643 52.4495C85.9903 52.266 86.4391 52.1409 86.8985 52.0776C87.6252 52.0149 88.3546 51.9899 89.0839 52.0027H89.3421C90.0832 51.9935 90.824 52.0326 91.56 52.1199C92.0151 52.1636 92.4593 52.2855 92.8731 52.4804C93.1667 52.6348 93.4015 52.8816 93.5415 53.1828C93.6954 53.5422 93.7689 53.9311 93.7567 54.322H95.3281C95.3728 53.855 95.3171 53.3837 95.1648 52.94C95.0126 52.4963 94.7672 52.0904 94.4454 51.7496C93.8837 51.2376 93.1764 50.9142 92.4224 50.8244C91.3133 50.7164 90.199 50.6703 89.0847 50.686L88.18 50.6649C87.1979 50.648 86.2188 50.7769 85.2743 51.0473L85.2751 51.0465ZM131.239 48.5807V50.8341H128.783V52.1102H131.239V57.6187C131.239 59.0504 131.601 59.9681 132.326 60.3718C133.413 60.8477 134.598 61.0556 135.781 60.978C137.69 60.978 138.871 60.668 139.324 60.0479C139.776 59.4278 140.002 58.1571 140 56.2361H138.619V57.4299C138.619 58.3913 138.376 59.0038 137.889 59.2675C137.168 59.5741 136.387 59.7086 135.606 59.6605C134.807 59.7499 134.002 59.5621 133.325 59.1283C132.851 58.4954 132.642 57.702 132.743 56.9172V52.1102H139.74V50.8341H132.743V48.5807H131.239ZM20.0231 46.6455L11.4148 58.806L2.83584 46.6455H0V60.8275H1.74357V48.0908L10.6994 60.8275H12.0986L21.0764 48.0892V60.8275H22.8191V46.6431L20.0231 46.6455ZM46.7013 59.6174C45.4637 59.6174 44.6478 59.3404 44.2537 58.7865C43.7873 57.9409 43.5807 56.976 43.66 56.0131C43.66 54.207 43.9618 53.091 44.5655 52.6651C45.1692 52.2393 46.3846 52.0258 48.2118 52.0247C48.7148 52.0247 49.2359 52.0391 49.7751 52.0679C50.3143 52.0966 50.944 52.1644 51.664 52.2713C51.9819 52.2993 52.2877 52.4067 52.5534 52.5837C52.8191 52.7607 53.0363 53.0016 53.1851 53.2845C53.5283 54.1075 53.6797 54.9981 53.6277 55.8886C53.6277 57.5802 53.2758 58.6362 52.572 59.0567C51.8681 59.4771 50.5526 59.6863 48.6252 59.6841L46.7013 59.6174ZM53.6277 46.5154V52.3209C53.4648 52.031 53.2619 51.7656 53.0251 51.5324C52.7841 51.302 52.4982 51.1238 52.1854 51.0091C51.814 50.8762 51.4264 50.7941 51.033 50.765C50.5953 50.7267 49.7946 50.7064 48.6333 50.7064H47.4501C45.3549 50.7064 43.9304 51.0655 43.1768 51.7838C42.4232 52.5022 42.0461 53.8975 42.0456 55.97C42.0456 58.1726 42.4974 59.5615 43.4009 60.1366C44.3045 60.7117 45.9263 60.9992 48.2662 60.9992H49.6663C50.5135 61.0207 51.3591 60.9131 52.174 60.6802C52.5047 60.5742 52.8071 60.3947 53.0588 60.1552C53.3106 59.9156 53.505 59.6222 53.6277 59.2968V60.8275H55.1349V46.5178L53.6277 46.5154ZM58.5815 48.3871H60.0871V46.5154H58.5758L58.5815 48.3871ZM68.2844 46.6114C67.3788 46.6663 66.485 46.8457 65.6281 47.1444C65.2832 47.2573 64.9642 47.4377 64.6896 47.6752C64.4149 47.9127 64.1901 48.2025 64.0282 48.5278C63.6895 49.2853 63.5279 50.1103 63.5556 50.9399C63.5067 51.4297 63.5814 51.9239 63.7728 52.3773C63.9642 52.8306 64.2662 53.2285 64.6511 53.5343C65.5885 54.0996 66.6751 54.3664 67.7671 54.2993L71.6157 54.4067H74.899C75.733 54.3463 76.5691 54.4902 77.3353 54.8258C77.8155 55.103 78.0559 55.757 78.0564 56.7878C78.0864 57.1036 78.0522 57.4221 77.9559 57.7243C77.8596 58.0264 77.7032 58.3058 77.4961 58.5456C76.8858 58.9947 76.155 59.2499 75.3984 59.278C74.144 59.4198 72.882 59.4844 71.6197 59.4717C70.6993 59.4717 69.766 59.4446 68.8196 59.3903C68.0512 59.3662 67.2882 59.2531 66.5457 59.0534C66.3187 59.011 66.1048 58.9155 65.9214 58.7748C65.738 58.6342 65.5902 58.4522 65.49 58.2437C65.3291 57.6944 65.2602 57.1221 65.2862 56.5502V56.2353H63.5426C63.4405 57.3742 63.6878 58.5173 64.2516 59.5116C64.5505 59.8546 64.9151 60.1338 65.3239 60.3328C65.7327 60.5317 66.1772 60.6463 66.631 60.6696C67.7436 60.8177 68.5689 60.9021 69.1071 60.9227C69.6452 60.9433 70.4527 60.9547 71.5296 60.9569H72.6706C73.761 60.9569 74.769 60.9143 75.6948 60.8291C76.5096 60.7719 77.3097 60.5822 78.0637 60.2676C78.6697 60.0218 79.1641 59.5609 79.4524 58.9729C79.745 58.2946 79.8837 57.5597 79.8585 56.8212C79.9091 56.323 79.86 55.8196 79.7142 55.3406C79.5683 54.8616 79.3286 54.4166 79.009 54.0315C78.3925 53.4653 77.6027 53.1251 76.7684 53.0664C75.8443 52.9679 75.1507 52.9109 74.6919 52.8963C74.2331 52.8817 73.7084 52.8751 73.1205 52.8751H68.1667C67.4358 52.921 66.7071 52.7563 66.0666 52.4007C65.804 52.1887 65.5998 51.9129 65.4736 51.5995C65.3474 51.2861 65.3033 50.9456 65.3455 50.6103C65.3356 50.1854 65.4013 49.7622 65.5395 49.3604C65.6234 49.1709 65.745 49.0006 65.8967 48.8599C66.0485 48.7191 66.2273 48.6109 66.4223 48.5417C67.1319 48.2886 67.8754 48.1435 68.6279 48.1112C69.6409 48.0244 70.6211 47.9813 71.5686 47.9818H72.1711C73.1924 47.9695 74.2134 48.019 75.2287 48.1299C75.7898 48.173 76.3414 48.3 76.8651 48.5067C77.1624 48.6553 77.3956 48.9073 77.5212 49.2155C77.6973 49.7051 77.7743 50.2249 77.7478 50.7446H79.4906C79.5709 49.7078 79.2731 48.6769 78.6525 47.8434C78.0191 47.1735 77.153 46.7732 76.2333 46.7253C75.1791 46.6168 74.4193 46.5498 73.9537 46.5243C73.4881 46.4988 72.7323 46.4885 71.6863 46.4934C70.4254 46.4934 69.2858 46.5319 68.2674 46.6089" fill="white"/>
</svg>
