<svg width="32" height="24" viewBox="0 0 32 24" fill="none" xmlns="http://www.w3.org/2000/svg">
<path d="M5.80072 0H26.2377C27.8127 0 29.2725 0.6375 30.3097 1.65C31.3469 2.6625 32 4.0875 32 5.625V18.3375C32 19.875 31.3469 21.3 30.3097 22.3125C29.2725 23.325 27.8127 23.9625 26.2377 23.9625H5.80072C4.22569 23.9625 2.76591 23.325 1.72869 22.3125C0.653061 21.3 0 19.9125 0 18.3375V5.6625C0 4.125 0.653061 2.7 1.69028 1.6875C2.72749 0.6375 4.18727 0 5.80072 0ZM2.80432 3.6375L15.9808 10.7625L29.1957 3.6375C29.0804 3.45 28.9268 3.3 28.7731 3.15C28.12 2.5125 27.1981 2.1 26.2377 2.1H5.80072C4.80192 2.1 3.91837 2.5125 3.26531 3.15C3.07323 3.3 2.91957 3.4875 2.80432 3.6375ZM29.8103 5.7375L16.5186 12.9C16.2113 13.0875 15.7887 13.0875 15.443 12.9L2.15126 5.7375V18.375C2.15126 19.35 2.57383 20.2125 3.22689 20.85C3.87995 21.4875 4.80192 21.9 5.7623 21.9H26.1993C27.1981 21.9 28.0816 21.4875 28.7347 20.85C29.3878 20.2125 29.8103 19.3125 29.8103 18.375C29.8103 18.3375 29.8103 5.7375 29.8103 5.7375Z" fill="white"/>
</svg>
