<svg width="48" height="48" viewBox="0 0 48 48" fill="none" xmlns="http://www.w3.org/2000/svg">
<rect opacity="0.24" width="48" height="48" rx="24" fill="white"/>
<path d="M29.2478 28.6244L28.0001 27.3793L27.5516 26.9318L27.3314 26.7112L20.7657 20.1582V20.1744L15.5678 14.978L14.4338 16.1049L20.7657 22.4283V23.779C20.7657 25.5504 22.2245 27 23.9958 27C24.3895 27.0001 24.7798 26.9278 25.1473 26.787L26.6655 28.2998C25.8531 28.712 24.94 28.9495 24.0039 28.9495C21.0514 28.9495 18.3149 26.6718 18.3149 23.4843H16.4894C16.4894 27.0938 19.4063 30.1735 22.9219 30.6569V34.5H25.0782V30.6569C26.1094 30.4997 27.0969 30.1308 27.9669 29.5965L32.4331 34.0532L33.5596 32.9282L31.9731 31.3446L29.2442 28.6277L31.9734 31.3446L29.2478 28.6244ZM27.2344 23.779V16.721C27.2344 14.9496 25.7715 13.5 24 13.5C22.2286 13.5 20.7657 14.9496 20.7657 16.721V17.9043L27.1927 24.3247C27.2241 24.147 27.2344 23.9647 27.2344 23.779ZM31.5206 23.4844H29.6953C29.6953 24.4451 29.4375 25.3442 28.9954 26.1186L30.2878 27.4084C31.0623 26.2783 31.5206 24.934 31.5206 23.4844ZM33.5625 32.9263L31.9736 31.3446L33.5605 32.9282L33.5625 32.9263Z" fill="white"/>
</svg>
