<svg width="72" height="73" viewBox="0 0 72 73" fill="none" xmlns="http://www.w3.org/2000/svg">
<path d="M36 61.5C22.4 61.5 11.5 50.5 11.6 37C11.7 23.4 22.6 12.6 36.1 12.6C49.7 12.6 60.6 23.6 60.5 37.1C60.4 50.6 49.5 61.5 36 61.5ZM18.5 24.3C16.1 27.6 14.7 31.3 14.4 35.5C17.3 35.5 20.1 35.5 22.9 35.5C22.9 35.4 23 35.3 23 35.3C23.4 32.6 23.7 29.8 24 27.1C24 26.9 23.8 26.6 23.6 26.5C22.1 25.7 20.4 25 18.5 24.3ZM53.4 24.3C51.6 25 49.9 25.8 48.2 26.4C47.8 26.6 47.8 26.8 47.9 27.1C48.2 28.5 48.4 29.9 48.6 31.3C48.8 32.7 48.9 34.1 49 35.4C51.9 35.4 54.7 35.4 57.5 35.4C57.5 32.1 55.5 26.6 53.4 24.3ZM14.5 38.5C14.8 42.7 16.2 46.5 18.6 49.8C20.5 49 22.3 48.2 24.1 47.4C23.7 44.5 23.3 41.5 23 38.5C20.2 38.5 17.4 38.5 14.5 38.5ZM49.1 38.5C48.7 41.5 48.3 44.5 48 47.4C49.8 48.2 51.6 49 53.5 49.8C55.9 46.5 57.3 42.7 57.6 38.5C54.6 38.5 51.8 38.5 49.1 38.5ZM34.5 28.4C31.9 28.1 29.5 27.8 26.8 27.4C26.5 30.1 26.1 32.7 25.8 35.4C28.8 35.4 31.6 35.4 34.5 35.4C34.5 33.1 34.5 30.8 34.5 28.4ZM37.5 28.4C37.5 30.8 37.5 33.1 37.5 35.5C40.4 35.5 43.2 35.5 46 35.5C45.9 32.7 45.6 30.1 45 27.5C42.4 27.8 40 28.1 37.5 28.4ZM34.5 38.5C31.6 38.5 28.8 38.5 25.9 38.5C26 41.3 26.3 43.9 27 46.5C29.6 46.2 32 45.9 34.5 45.5C34.5 43.2 34.5 40.9 34.5 38.5ZM45.1 46.5C45.4 43.9 45.8 41.2 46.1 38.5C43.1 38.5 40.3 38.5 37.4 38.5C37.4 40.9 37.4 43.3 37.4 45.6C40 45.9 42.5 46.2 45.1 46.5ZM37.5 48.4C37.5 51.8 37.5 55 37.5 58.3C41.3 56.4 42.8 52.9 44.3 49.2C41.9 49 39.7 48.7 37.5 48.4ZM37.5 15.6C37.5 19 37.5 22.2 37.5 25.5C39.8 25.2 42 24.9 44.3 24.6C42.8 20.9 41.3 17.4 37.5 15.6ZM27.7 24.7C30.1 25 32.3 25.3 34.5 25.5C34.5 22.1 34.5 18.9 34.5 15.6C30.7 17.5 29.2 20.9 27.7 24.7ZM34.5 48.4C32.2 48.7 30 49 27.7 49.3C29.2 53 30.7 56.5 34.5 58.4C34.5 55 34.5 51.8 34.5 48.4ZM51.5 22C49.6 19.7 45.3 17.2 43.8 16.9C44.9 19.1 46.1 21.4 47.3 23.8C48.5 23.3 49.9 22.7 51.5 22ZM51.5 52C49.9 51.3 48.5 50.7 47.2 50.2C46 52.6 44.8 54.9 43.7 57.2C46.6 56.1 49.2 54.4 51.5 52ZM24.8 23.8C26 21.4 27.2 19.1 28.3 16.8C26.3 17.3 22.2 19.9 20.6 21.9C22 22.6 23.5 23.3 24.8 23.8ZM28.3 57.2C27.2 54.9 26 52.6 24.8 50.2C23.5 50.8 22 51.4 20.5 52C22.8 54.4 25.4 56.1 28.3 57.2Z" fill="white"/>
<path d="M8.6 61.3C8.6 62.7 8.6 64.1 8.6 65.5C8.6 66.6 8 67.2 7.2 67.3C6.3 67.3 5.8 66.6 5.7 65.6C5.7 62.9 5.7 60.2 5.7 57.6C5.7 56.4 6.2 55.9 7.5 55.9C10.2 55.9 12.9 55.9 15.5 55.9C16.6 55.9 17.2 56.5 17.2 57.4C17.2 58.3 16.5 58.8 15.5 58.8C13.8 58.8 12.1 58.8 10.5 58.8C10.5 58.8 10.4 58.8 10.3 58.9C10.5 59.1 10.6 59.3 10.8 59.5C16.7 65.5 24 69 32.5 69.9C42.6 70.9 51.5 67.9 58.8 60.9C65.9 54.1 69.3 45.7 69.1 35.9C69 31.5 68 27.4 66.2 23.4C65.6 22.1 66.3 21 67.5 21.1C68.2 21.2 68.5 21.6 68.8 22.2C70.2 25.3 71.2 28.6 71.6 32C72.6 39.6 71.5 46.9 67.8 53.7C62.1 64.2 53.4 70.6 41.6 72.4C29 74.4 18.2 70.6 9.1 61.6C9 61.5 8.9 61.4 8.8 61.4C8.8 61.4 8.8 61.4 8.6 61.3Z" fill="white"/>
<path d="M63.3 12.6C63.3 11.2 63.3 9.79999 63.3 8.29999C63.3 7.09999 64.4 6.39999 65.3 6.89999C65.9 7.19999 66.1 7.59999 66.1 8.19999C66.1 11.1 66.1 13.9 66.1 16.8C66.1 17.7 65.5 18.3 64.5 18.3C61.7 18.3 58.9 18.3 56.2 18.3C55.2 18.3 54.6 17.7 54.6 16.9C54.6 16 55.2 15.4 56.2 15.4C57.7 15.4 59.2 15.4 60.7 15.4C60.9 15.4 61.2 15.4 61.6 15.4C61.3 15.1 61.1 14.9 60.9 14.6C55.2 8.49999 48 4.79999 39.5 4.09999C25.9 2.99999 15.2 8.3 7.8 19.7C4 25.5 2.6 32 2.9 39C3.1 43 3.7 46.9 5.2 50.6C5.6 51.6 5.3 52.4 4.5 52.7C3.7 53 2.9 52.6 2.5 51.6C0.7 46.9 0 42 0 37C0 19.5 12.7 4.29999 30 1.49999C42.6 -0.500005 53.5 3.2 62.7 12.1C62.9 12.3 63 12.4 63.2 12.6C63.2 12.6 63.2 12.6 63.3 12.6Z" fill="white"/>
</svg>
