<svg width="65" height="73" viewBox="0 0 65 73" fill="none" xmlns="http://www.w3.org/2000/svg">
<path d="M31.9 72.0001C30.2 71.4001 28.5 70.8001 26.8 70.2001C19.3 67.2001 12.7 62.9001 7.6 56.7001C2.6 50.7001 0 43.7001 0 35.9001C0 28.3001 0 20.7001 0 13.1001C0 11.4001 0.6 10.8001 2.3 10.8001C8.1 10.7001 13.9 9.8001 19.4 7.9001C22.1 7.0001 24.8 5.9001 27.2 4.2001C28.5 3.2001 29.6 2.0001 30.9 1.0001C31.3 0.700098 31.6 0.400098 32 0.100098C32.3 0.100098 32.7 0.100098 33 0.100098C33.5 0.500098 34 0.800098 34.3 1.3001C36.4 3.7001 39.1 5.3001 41.9 6.6001C46.4 8.6001 51.1 9.8001 55.9 10.4001C58.2 10.7001 60.4 10.8001 62.7 10.9001C64.2 11.0001 64.8 11.6001 64.8 13.1001C64.8 20.6001 64.8 28.1001 64.8 35.6001C64.9 45.4001 61 53.5001 54.1 60.2001C48.3 65.8001 41.3 69.5001 33.7 71.9001C33.4 72.0001 33.2 72.1001 32.9 72.2001C32.6 72.0001 32.3 72.0001 31.9 72.0001ZM3.6 14.4001C3.6 14.6001 3.6 14.8001 3.6 15.0001C3.6 22.0001 3.6 29.1001 3.6 36.1001C3.6 37.3001 3.7 38.6001 3.8 39.8001C4.7 46.2001 7.6 51.7001 12 56.4001C17.4 62.0001 24.1 65.7001 31.5 68.1001C32.1 68.3001 32.6 68.3001 33.2 68.1001C34.3 67.7001 35.4 67.4001 36.4 66.9001C43.3 64.2001 49.4 60.3001 54.2 54.5001C58.4 49.5001 60.9 43.7001 61 37.1001C61.1 29.7001 61 22.2001 61.1 14.7001C61.1 14.6001 61.1 14.4001 61 14.3001C60.8 14.3001 60.6 14.3001 60.4 14.3001C56.3 14.1001 52.3 13.5001 48.3 12.5001C43.8 11.3001 39.4 9.8001 35.5 7.2001C34.3 6.4001 33.2 5.5001 32.2 4.7001C24.1 11.7001 14.1 13.6001 3.6 14.4001Z" fill="white"/>
<path d="M50.4 36.0001C50.4 46.0001 42.3 54.0001 32.3 54.0001C22.4 54.0001 14.2 45.8001 14.3 35.9001C14.4 25.9001 22.4 17.9001 32.4 18.0001C42.4 18.0001 50.5 26.1001 50.4 36.0001ZM32.4 21.6001C24.5 21.6001 18 28.0001 18 36.0001C18 44.0001 24.5 50.4001 32.5 50.4001C40.5 50.4001 46.9 43.9001 46.9 36.0001C46.8 28.0001 40.3 21.6001 32.4 21.6001Z" fill="white"/>
<path d="M30.6 37.1001C32.4 35.3001 34.1 33.6001 35.8 31.9001C36.1 31.6001 36.4 31.3001 36.7 31.0001C37.4 30.4001 38.4 30.5001 39.1 31.1001C39.7 31.7001 39.8 32.7001 39.3 33.4001C39.2 33.6001 39 33.8001 38.8 33.9001C36.6 36.1001 34.4 38.3001 32.1 40.6001C31 41.7001 30.1 41.7001 29 40.6001C27.9 39.5001 26.8 38.5001 25.8 37.4001C24.9 36.5001 24.9 35.5001 25.7 34.7001C26.4 34.0001 27.5 34.0001 28.4 34.8001C29.1 35.5001 29.8 36.3001 30.6 37.1001Z" fill="white"/>
</svg>
