<svg width="48" height="48" viewBox="0 0 48 48" fill="none" xmlns="http://www.w3.org/2000/svg">
<rect opacity="0.24" width="48" height="48" rx="24" fill="white"/>
<path d="M33.5885 25.17C33.6365 24.786 33.6725 24.396 33.6725 24C33.6725 23.604 33.6365 23.214 33.5885 22.83L36.1265 20.844C36.3545 20.664 36.4205 20.34 36.2705 20.076L33.8706 15.918C33.7206 15.66 33.4085 15.552 33.1385 15.66L30.1505 16.866C29.5325 16.392 28.8545 15.99 28.1225 15.684L27.6725 12.504C27.6185 12.222 27.3725 12 27.0725 12H22.2725C21.9725 12 21.7265 12.222 21.6785 12.504L21.2285 15.684C20.4965 15.99 19.8185 16.386 19.2005 16.866L16.2125 15.66C15.9425 15.558 15.6305 15.66 15.4805 15.918L13.0805 20.076C12.9305 20.334 12.9965 20.658 13.2245 20.844L15.7565 22.83C15.7085 23.214 15.6725 23.604 15.6725 24C15.6725 24.396 15.7085 24.786 15.7565 25.17L13.2245 27.156C12.9965 27.336 12.9305 27.66 13.0805 27.924L15.4805 32.082C15.6305 32.34 15.9425 32.448 16.2125 32.34L19.2005 31.134C19.8185 31.608 20.4965 32.01 21.2285 32.316L21.6785 35.496C21.7265 35.778 21.9725 36 22.2725 36H27.0725C27.3725 36 27.6185 35.778 27.6665 35.496L28.1165 32.316C28.8485 32.01 29.5265 31.614 30.1445 31.134L33.1325 32.34C33.4025 32.442 33.7145 32.34 33.8645 32.082L36.2645 27.924C36.4145 27.666 36.3486 27.342 36.1206 27.156L33.5885 25.17V25.17ZM24.6725 28.2C22.3505 28.2 20.4725 26.322 20.4725 24C20.4725 21.678 22.3505 19.8 24.6725 19.8C26.9945 19.8 28.8725 21.678 28.8725 24C28.8725 26.322 26.9945 28.2 24.6725 28.2Z" fill="white"/>
</svg>
