<svg width="49" height="49" viewBox="0 0 49 49" fill="none" xmlns="http://www.w3.org/2000/svg">
<path d="M0 47.2002C0.2 46.2002 0.3 45.2002 0.7 44.2002C1.5 41.5002 3.3 39.6002 5.7 38.2002C8.1 36.7002 10.9 36.0002 13.6 35.6002C13.6 35.6002 13.7 35.6002 13.8 35.6002C13.3 36.5002 12.9 37.4002 12.4 38.4002C12.3 38.6002 12.2 38.8002 12.1 38.9002C11.8 39.5002 12 39.8002 12.5 40.1002C13.3 40.5002 14 40.9002 14.8 41.2002C15 41.3002 15.1 41.5002 15.1 41.7002C15.1 42.4002 15.1 43.1002 15.1 43.8002C15.1 44.5002 15.3 44.7002 16 44.9002C18.2 45.6002 20.4 46.2002 22.7 46.9002C23.1 47.0002 23.2 47.2002 23.2 47.5002C23.2 47.9002 23.2 48.4002 23.2 48.8002C15.4 49.0002 7.7 49.0002 0 49.0002C0 48.4002 0 47.8002 0 47.2002Z" fill="white"/>
<path d="M24.8 49.0002C24.8 48.5002 24.7 48.0002 24.8 47.5002C24.8 47.4002 25 47.2002 25.2 47.1002C27.4 46.4002 29.6 45.8002 31.9 45.1002C32.7 44.9002 32.8 44.7002 32.8 43.9002C32.8 43.2002 32.8 42.6002 32.8 41.9002C32.8 41.6002 32.9 41.4002 33.2 41.3002C33.9 41.0002 34.7 40.6002 35.4 40.2002C36.1 39.9002 36.2 39.5002 35.9 38.8002C35.4 37.7002 34.8 36.7002 34.3 35.5002C35.1 35.6002 35.8 35.8002 36.5 35.9002C38.9 36.4002 41.3 37.3002 43.3 38.7002C46.5 41.0002 48 44.1002 48.1 48.0002C48.1 48.4002 47.9 48.7002 47.5 48.9002C39.9 49.0002 32.4 49.0002 24.8 49.0002Z" fill="white"/>
<path d="M28.8 32.9002C28.8 33.7002 28.8 34.4002 28.8 35.2002C28.8 35.8002 28.5 36.2002 28 36.2002C27.5 36.2002 27.2 35.8002 27.2 35.2002C27.2 34.5002 27.2 33.8002 27.2 33.0002C25.1 34.1002 23 34.1002 20.8 33.0002C20.8 33.7002 20.8 34.4002 20.8 35.0002C20.8 35.2002 20.8 35.3002 20.8 35.5002C20.7 36.0002 20.4 36.2002 19.9 36.2002C19.5 36.2002 19.2 35.9002 19.2 35.4002C19.2 34.7002 19.2 34.1002 19.2 33.4002C19.2 33.2002 19.2 33.1002 19.1 33.0002C17.4 32.5002 15.7 32.1002 14.1 31.5002C12.3 30.9002 10.7 29.9002 9.2 28.8002C8.5 28.3002 8.3 27.5002 8.2 26.7002C8 25.2002 8.1 23.6002 8.3 22.1002C8.9 18.1002 9.9 14.2002 11 10.3002C11.1 10.0002 11.1 9.70018 11 9.30019C10.6 8.30019 10.2 7.20018 9.7 6.20018C9.5 5.70018 9.6 5.30018 10 5.00018C12.5 3.60018 15.1 2.30018 17.9 1.60018C23.6 0.200185 29.2 0.800184 34.6 3.30018C35.7 3.80018 36.7 4.40018 37.7 4.90018C38.3 5.20018 38.4 5.60018 38.2 6.20018C37.8 7.20018 37.4 8.30019 37 9.30019C36.9 9.60019 36.9 9.90019 36.9 10.3002C37.8 13.8002 38.6 17.3002 39.4 20.8002C39.8 22.5002 40 24.3002 39.8 26.0002C39.8 26.6002 39.6 27.2002 39.5 27.7002C39.4 28.2002 39 28.6002 38.5 29.0002C35.6 31.0002 32.5 32.3002 29 32.8002C29.1 32.9002 28.9 32.9002 28.8 32.9002ZM15.2 19.1002C15.2 20.7002 15.1 22.3002 15.2 23.9002C15.2 24.7002 15.5 25.5002 15.8 26.2002C17.1 28.9002 19.3 30.7002 22.1 31.8002C23.3 32.3002 24.6 32.3002 25.8 31.8002C28 30.9002 29.8 29.5002 31.2 27.5002C32 26.3002 32.6 25.1002 32.6 23.6002C32.6 22.1002 32.6 20.7002 32.6 19.2002C32.6 19.1002 32.5 18.9002 32.4 18.8002C30.7 17.9002 29.3 16.5002 28 15.1002C27.7 14.8002 27.6 14.8002 27.3 15.0002C25.9 15.7002 24.5 16.3002 23 16.9002C20.6 17.9002 17.9 18.6002 15.2 19.1002ZM14 12.6002C20.7 10.0002 27.3 10.0002 34 12.6002C34.8 10.5002 35.7 8.30018 36.6 6.20018C27.6 0.900184 18.5 1.90018 11.4 6.20018C12.3 8.40018 13.1 10.5002 14 12.6002Z" fill="white"/>
<path d="M13.9 39.0002C14.5 37.8002 15.1 36.7002 15.6 35.6002C15.7 35.5002 15.9 35.4002 16 35.4002C16.3 35.5002 16.6 35.6002 16.8 35.8002C18.9 37.8002 20.9 39.9002 23 42.0002C23.1 42.1002 23.2 42.2002 23.3 42.4002C23.3 43.4002 23.3 44.4002 23.3 45.5002C22.5 45.3002 21.8 45.1002 21.1 44.8002C19.9 44.4002 18.7 44.1002 17.4 43.7002C17 43.6002 16.9 43.5002 16.9 43.1002C16.9 42.4002 16.9 41.8002 16.9 41.1002C16.9 40.6002 16.7 40.3002 16.3 40.1002C15.4 39.8002 14.7 39.4002 13.9 39.0002Z" fill="white"/>
<path d="M24.8 45.5002C24.8 44.5002 24.8 43.5002 24.8 42.5002C24.8 42.4002 24.9 42.2002 25 42.1002C27.1 40.0002 29.2 37.9002 31.3 35.8002C31.4 35.7002 31.6 35.5002 31.8 35.5002C32.1 35.4002 32.3 35.4002 32.5 35.8002C33 36.9002 33.6 38.0002 34.1 39.1002C33.3 39.5002 32.6 39.9002 31.8 40.2002C31.3 40.4002 31.1 40.7002 31.1 41.3002C31.1 42.0002 31.1 42.7002 31.1 43.4002C31.1 43.5002 31 43.7002 30.9 43.8002C28.9 44.4002 26.9 45.0002 24.9 45.6002C24.9 45.5002 24.9 45.5002 24.8 45.5002Z" fill="white"/>
<path d="M24 29.0002C23 29.0002 22.1 28.7002 21.2 28.1002C20.8 27.8002 20.7 27.3002 20.9 27.0002C21.2 26.6002 21.6 26.5002 22 26.8002C23.1 27.5002 24.2 27.7002 25.3 27.1002C25.5 27.0002 25.7 26.9002 25.9 26.8002C26.3 26.6002 26.8 26.6002 27 27.0002C27.3 27.4002 27.1 27.8002 26.7 28.1002C26 28.7002 25 29.0002 24 29.0002Z" fill="white"/>
<path d="M19.2 22.6002C18.3 22.6002 17.6 21.9002 17.6 21.0002C17.6 20.1002 18.3 19.4002 19.2 19.4002C20.1 19.4002 20.8 20.1002 20.8 21.0002C20.8 21.9002 20.1 22.6002 19.2 22.6002Z" fill="white"/>
<path d="M28.8 22.6002C27.9 22.6002 27.2 21.9002 27.2 21.0002C27.2 20.1002 27.9 19.4002 28.8 19.4002C29.7 19.4002 30.4 20.1002 30.4 21.0002C30.4 21.9002 29.7 22.6002 28.8 22.6002Z" fill="white"/>
<path d="M24.8 7.40018C24.7 8.10018 25 8.90018 24 9.00019C22.9 9.00019 23.2 8.10018 23.1 7.50018C22.5 7.40018 21.6 7.70018 21.6 6.70018C21.6 5.70018 22.5 5.90018 23.1 5.80018C23.2 5.10018 23 4.20018 24 4.30018C25 4.30018 24.7 5.20018 24.8 5.80018C25.4 5.90018 26.3 5.60018 26.3 6.70018C26.4 7.60018 25.5 7.30018 24.8 7.40018Z" fill="white"/>
</svg>
