<svg width="45" height="49" viewBox="0 0 45 49" fill="none" xmlns="http://www.w3.org/2000/svg">
<path d="M27.8 31.5998C26.2 32.6998 24.7 33.7998 23.1 34.8998C22.2 35.5998 22.1 35.5998 21.2 34.8998C19.8 33.8998 18.4 32.7998 16.9 31.6998C17 32.5998 17.2 33.3998 17.3 34.1998C18 38.2998 18.6 42.4998 19.3 46.5998C19.5 47.5998 19.2 47.8998 18.2 47.8998C12.5 47.8998 6.89999 47.8998 1.19999 47.8998C0.199993 47.8998 -0.100007 47.5998 0.0999929 46.5998C0.599993 43.4998 1.19999 40.2998 1.69999 37.1998C2.29999 33.4998 4.49999 31.1998 8.19999 30.4998C8.79999 30.3998 9.29999 30.2998 9.79999 30.1998C9.49999 31.4998 9.29999 32.6998 8.99999 33.8998C8.99999 33.8998 9.09999 33.8998 9.09999 33.9998C8.99999 33.9998 8.89999 33.9998 8.79999 34.0998C7.09999 34.5998 5.99999 35.7998 5.69999 37.5998C5.39999 38.9998 5.19999 40.3998 4.89999 41.7998C4.59999 43.3998 5.69999 44.6998 7.29999 44.7998C7.59999 44.7998 7.89999 44.7998 8.19999 44.7998C8.19999 44.1998 8.19999 43.6998 8.19999 43.0998C7.89999 43.0998 7.59999 43.0998 7.29999 43.0998C6.69999 43.0998 6.39999 42.5998 6.49999 42.0998C6.79999 40.6998 6.99999 39.2998 7.29999 37.7998C7.49999 36.4998 8.59999 35.6998 9.89999 35.6998C11.2 35.6998 12.2 36.4998 12.5 37.7998C12.8 39.1998 13 40.6998 13.3 42.0998C13.4 42.6998 13.1 43.0998 12.4 43.0998C12.1 43.0998 11.9 43.0998 11.6 43.0998C11.6 43.6998 11.6 44.1998 11.6 44.6998C13.6 45.1998 15.2 43.6998 14.9 41.6998C14.7 40.2998 14.4 38.8998 14.1 37.4998C13.7 35.6998 12.6 34.5998 10.7 34.0998C10.6 32.5998 11.1 31.1998 12.1 29.8998C11.3 29.9998 10.7 30.0998 9.89999 30.2998C11.2 27.8998 13.1 26.4998 15.8 25.8998C15.7 25.7998 15.6 25.6998 15.5 25.5998C13.8 23.8998 12.7 21.8998 12.5 19.4998C12.5 19.1998 12.3 19.0998 12.1 18.9998C9.19999 18.0998 8.19999 14.8998 9.99999 12.3998C10.1 12.1998 10.2 11.8998 10.2 11.6998C9.89999 9.59978 9.79999 7.49978 10.3 5.29978C11 2.69978 12.8 1.29978 15.2 0.699784C18 -0.000216484 20.8 -0.100216 23.7 0.0997835C24.8 0.199784 25.7 0.599783 26.6 1.29978C26.8 1.39978 27 1.49978 27.2 1.39978C28.5 1.19978 29.7 1.09978 30.9 1.49978C33.1 2.29978 34 3.99978 34.3 6.09978C34.5 7.79978 34.3 9.49978 34 11.1998C33.9 11.4998 34 11.6998 34.2 11.8998C36.6 14.0998 35.7 17.8998 32.6 18.8998C32.4 18.9998 32.2 19.0998 32.2 19.2998C31.9 21.7998 30.8 23.9998 28.9 25.6998C28.9 25.6998 28.8 25.7998 28.8 25.8998C31.4 26.3998 33.3 27.7998 34.7 30.2998C33.9 30.1998 33.3 29.9998 32.5 29.8998C34.2 31.9998 33.9 34.2998 33.9 36.6998C33.8 36.7998 33.6 36.7998 33.4 36.8998C32 37.4998 31.2 39.0998 31.5 40.5998C31.8 42.1998 33.2 43.2998 34.7 43.2998C36.3 43.2998 37.6 42.1998 37.9 40.5998C38.2 39.0998 37.4 37.4998 36 36.8998C35.6 36.6998 35.5 36.4998 35.5 36.0998C35.5 34.6998 35.4 33.3998 35.3 31.9998C35.2 31.4998 35 30.8998 34.8 30.3998C38.6 30.7998 42.1 32.3998 43 37.1998C43.5 40.3998 44.1 43.6998 44.6 46.8998C44.7 47.6998 44.4 48.0998 43.6 48.0998C37.9 48.0998 32.1 48.0998 26.4 48.0998C25.6 48.0998 25.3 47.6998 25.4 46.8998C26.2 41.8998 27 36.9998 27.8 31.9998C27.8 31.8998 27.8 31.7998 27.8 31.5998ZM14.1 14.1998C14.1 15.7998 13.9 17.5998 14.1 19.2998C14.5 23.1998 17.8 26.1998 21.7 26.3998C25.6 26.6998 29.2 24.0998 30.2 20.3998C30.8 18.2998 30.4 16.2998 30.5 14.1998C28.4 13.4998 26.5 12.5998 25.3 10.6998C25.2 10.7998 25.1 10.8998 25 10.9998C23.7 12.1998 22.1 13.0998 20.3 13.3998C18.3 13.6998 16.2 13.8998 14.1 14.1998ZM32.5 29.6998C31.7 28.7998 30.9 28.1998 30 27.7998C28.5 27.1998 27 27.0998 25.5 27.5998C23.5 28.2998 21.4 28.2998 19.4 27.5998C18.3 27.1998 17.2 27.1998 16.1 27.3998C14.6 27.6998 13.3 28.3998 12.3 29.6998C13.9 29.3998 15.5 29.0998 17 28.7998C17.3 28.6998 17.8 28.7998 18.1 28.8998C21 29.9998 23.9 30.0998 26.9 28.8998C27.3 28.6998 27.7 28.6998 28.1 28.7998C29.4 29.0998 30.8 29.3998 32.5 29.6998ZM32.3 17.1998C33.3 16.8998 34 15.8998 33.9 14.7998C33.8 13.7998 33.1 12.8998 32.3 12.7998C32.3 14.1998 32.3 15.6998 32.3 17.1998ZM12.4 12.7998C11.3 12.9998 10.7 13.7998 10.8 14.8998C10.8 15.9998 11.6 16.9998 12.4 17.0998C12.4 15.6998 12.4 14.2998 12.4 12.7998Z" fill="url(#paint0_linear_119_3)"/>
<defs>
<linearGradient id="paint0_linear_119_3" x1="0.0415039" y1="24.0543" x2="44.6185" y2="24.0543" gradientUnits="userSpaceOnUse">
<stop stop-color="#AAEA03"/>
<stop offset="0.5" stop-color="#21B5C0"/>
<stop offset="0.971" stop-color="#007EBE"/>
<stop offset="1" stop-color="#007EBE"/>
</linearGradient>
</defs>
</svg>
