<svg width="48" height="48" viewBox="0 0 48 48" fill="none" xmlns="http://www.w3.org/2000/svg">
<circle cx="24" cy="24" r="23.5" stroke="white"/>
<path d="M36 16.7216C35.1456 17.1677 33.8526 17.3794 33.4291 17.4399C33.4291 17.4172 33.4216 17.4021 33.4216 17.3794C34.8658 16.4721 35.3119 14.7784 35.3119 14.7784C34.4121 15.2926 33.6181 15.5799 33.0208 15.7387C32.6881 15.8294 32.4083 15.8748 32.2117 15.905C31.3043 14.975 30.0416 14.4004 28.6427 14.4004C25.8904 14.4004 23.6522 16.6309 23.6522 19.3906C23.6522 19.4889 23.6522 19.5872 23.6597 19.6855C23.6749 19.9275 23.7051 20.1619 23.7505 20.3887C22.4197 20.366 17.603 19.9577 13.6106 15.3228C13.6106 15.3228 11.3875 19.2016 15.1229 21.848C15.1229 21.848 13.6106 21.8026 12.8091 21.2355C12.8091 21.2355 12.5747 24.9706 16.8771 26.1502C16.8771 26.1502 15.3648 26.5282 14.6087 26.1955C14.6087 26.1955 15.3648 29.4089 19.1456 29.6433C19.1456 29.6433 16.431 32.1233 12 31.768C14.1777 33.1441 16.7637 33.9455 19.5312 33.9455C27.3195 33.9455 33.6333 27.6321 33.6333 19.8443C33.6333 19.746 33.6333 19.6477 33.6333 19.5494C33.6333 19.4889 33.6333 19.436 33.6333 19.3755C33.6333 19.3377 33.6333 19.2923 33.6333 19.2545C35.0699 18.3094 36 16.7216 36 16.7216Z" fill="white"/>
</svg>
