<svg width="48" height="48" viewBox="0 0 48 48" fill="none" xmlns="http://www.w3.org/2000/svg">
<rect opacity="0.24" width="48" height="48" rx="24" fill="white"/>
<path d="M32 21V17.41L25.41 24L32 30.59V27C32 26.7348 32.1054 26.4804 32.2929 26.2929C32.4804 26.1054 32.7348 26 33 26C33.2652 26 33.5196 26.1054 33.7071 26.2929C33.8946 26.4804 34 26.7348 34 27V33C34 33.2652 33.8946 33.5196 33.7071 33.7071C33.5196 33.8946 33.2652 34 33 34H27C26.7348 34 26.4804 33.8946 26.2929 33.7071C26.1054 33.5196 26 33.2652 26 33C26 32.7348 26.1054 32.4804 26.2929 32.2929C26.4804 32.1054 26.7348 32 27 32H30.59L24 25.41L17.41 32H21C21.2652 32 21.5196 32.1054 21.7071 32.2929C21.8946 32.4804 22 32.7348 22 33C22 33.2652 21.8946 33.5196 21.7071 33.7071C21.5196 33.8946 21.2652 34 21 34H15C14.7348 34 14.4804 33.8946 14.2929 33.7071C14.1054 33.5196 14 33.2652 14 33V27C14 26.7348 14.1054 26.4804 14.2929 26.2929C14.4804 26.1054 14.7348 26 15 26C15.2652 26 15.5196 26.1054 15.7071 26.2929C15.8946 26.4804 16 26.7348 16 27V30.59L22.59 24L16 17.41V21C16 21.2652 15.8946 21.5196 15.7071 21.7071C15.5196 21.8946 15.2652 22 15 22C14.7348 22 14.4804 21.8946 14.2929 21.7071C14.1054 21.5196 14 21.2652 14 21V15C14 14.7348 14.1054 14.4804 14.2929 14.2929C14.4804 14.1054 14.7348 14 15 14H21C21.2652 14 21.5196 14.1054 21.7071 14.2929C21.8946 14.4804 22 14.7348 22 15C22 15.2652 21.8946 15.5196 21.7071 15.7071C21.5196 15.8946 21.2652 16 21 16H17.41L24 22.59L30.59 16H27C26.7348 16 26.4804 15.8946 26.2929 15.7071C26.1054 15.5196 26 15.2652 26 15C26 14.7348 26.1054 14.4804 26.2929 14.2929C26.4804 14.1054 26.7348 14 27 14H33C33.2652 14 33.5196 14.1054 33.7071 14.2929C33.8946 14.4804 34 14.7348 34 15V21C34 21.2652 33.8946 21.5196 33.7071 21.7071C33.5196 21.8946 33.2652 22 33 22C32.7348 22 32.4804 21.8946 32.2929 21.7071C32.1054 21.5196 32 21.2652 32 21Z" fill="white"/>
</svg>
